<?xml version="1.0" encoding="UTF-8"?>
<!-- Generator: Adobe Illustrator 19.1.0, SVG Export Plug-In . SVG Version: 6.00 Build 0)  -->
<svg version="1.1" id="Layer_1" xmlns="http://www.w3.org/2000/svg" xmlns:xlink="http://www.w3.org/1999/xlink" x="0px" y="0px" viewBox="0 0 90 90" style="enable-background:new 0 0 90 90;" xml:space="preserve">
<style type="text/css">
	.st0{opacity:0.26;fill:#488BCA;}
	.st1{opacity:0.5;fill:none;}
	.st2{fill:none;stroke:#4A8CCA;stroke-width:1.3;stroke-linecap:round;stroke-linejoin:round;stroke-miterlimit:10;}
	
		.st3{fill:none;stroke:#4A8CCA;stroke-width:1.3;stroke-linecap:round;stroke-linejoin:round;stroke-miterlimit:10;stroke-dasharray:3;}
	.st4{fill:none;stroke:#4A8CCA;stroke-width:1.7158;stroke-miterlimit:10;}
	.st5{fill:#4A8CCA;}
	.st6{fill:#4A8CCA;stroke:#4A8CCA;stroke-width:1.7158;stroke-miterlimit:10;}
	.st7{fill:none;stroke:#4A8CCA;stroke-width:2;stroke-miterlimit:10;}
	.st8{fill:#FFFFFF;stroke:#4A8CCA;stroke-miterlimit:10;}
	.st9{fill:#FFFFFF;stroke:#4A8CCA;stroke-width:2;stroke-miterlimit:10;}
	.st10{fill:#FFFFFF;stroke:#4A8CCA;stroke-width:2;stroke-linecap:round;stroke-miterlimit:10;}
	.st11{fill:none;stroke:#4A8CCA;stroke-width:2;stroke-linecap:round;stroke-linejoin:round;stroke-miterlimit:10;}
	.st12{fill:none;stroke:#4A8CCA;stroke-width:2;stroke-linecap:round;stroke-miterlimit:10;}
</style>
<g>
	<path class="st11" d="M17,55.7c1.4,1.2,2.7,3.3,4.7,5C29,66.8,38.5,74.7,40,75.6c1.3,0.8,3.1,1.5,4.6,1.5c1.4,0,4-1.5,4.6-3.1   c2.8,2.6,7.3,2.2,7.7-1.5c2.3,2.2,8.1,0.9,7.7-3.1c2.7,1.9,6.6-1.9,4.6-6.1C66.5,58,54.5,45,47.6,40.4c-3.3,1.2-3.6,1.3-6.1,1.5   c-1.8,2.8-4.5,7.7-9.2,6.1c-4.7-1.6-1-10,2.3-13.3c3.3-3.3,10.5-7.3,18.2-3.9c7.7,3.4,13.2,5,13.2,5"/>
	<path class="st11" d="M36.9,32.7c-4.1-0.5-12.3-1.6-15.3-1.5"/>
	<line class="st11" x1="69.1" y1="61.8" x2="75.2" y2="58.8"/>
	<path class="st11" d="M64.5,69.5c-2-1.6-12.3-12.3-12.3-12.3"/>
	<path class="st11" d="M56.8,72.6c-2.5-2-9.7-9.6-10.7-10.7"/>
	<path class="st11" d="M49.2,74.1c-2.6-2.2-7.1-5.4-9.2-7.7"/>
	<path class="st11" d="M1.7,61.8c3.1,0,12.3,0,12.3,0s6.8-20.8,7.7-30.6c-4.8-1.7-16.9-3.1-16.9-3.1S1.8,47.9,1.7,61.8z"/>
	<path class="st11" d="M66,35.9c2.6,4.1,7.8,19.4,9.2,24.4c4.6,0,13.8,0,13.8,0s-1.7-21.4-6.1-27.6C75,31.2,66,35.9,66,35.9z"/>
</g>
</svg>