<?xml version="1.0" encoding="UTF-8"?>
<!-- Generator: Adobe Illustrator 19.1.0, SVG Export Plug-In . SVG Version: 6.00 Build 0)  -->
<svg version="1.1" id="Layer_1" xmlns="http://www.w3.org/2000/svg" xmlns:xlink="http://www.w3.org/1999/xlink" x="0px" y="0px" viewBox="0 0 90 90" style="enable-background:new 0 0 90 90;" xml:space="preserve">
<style type="text/css">
	.st0{opacity:0.26;fill:#488BCA;}
	.st1{opacity:0.5;fill:none;}
	.st2{fill:none;stroke:#4A8CCA;stroke-width:1.3;stroke-linecap:round;stroke-linejoin:round;stroke-miterlimit:10;}
	
		.st3{fill:none;stroke:#4A8CCA;stroke-width:1.3;stroke-linecap:round;stroke-linejoin:round;stroke-miterlimit:10;stroke-dasharray:3;}
	.st4{fill:none;stroke:#4A8CCA;stroke-width:1.7158;stroke-miterlimit:10;}
	.st5{fill:#4A8CCA;}
	.st6{fill:#4A8CCA;stroke:#4A8CCA;stroke-width:1.7158;stroke-miterlimit:10;}
	.st7{fill:none;stroke:#4A8CCA;stroke-width:2;stroke-miterlimit:10;}
	.st8{fill:#FFFFFF;stroke:#4A8CCA;stroke-miterlimit:10;}
	.st9{fill:#FFFFFF;stroke:#4A8CCA;stroke-width:2;stroke-miterlimit:10;}
	.st10{fill:#FFFFFF;stroke:#4A8CCA;stroke-width:2;stroke-linecap:round;stroke-miterlimit:10;}
	.st11{fill:none;stroke:#4A8CCA;stroke-width:2;stroke-linecap:round;stroke-linejoin:round;stroke-miterlimit:10;}
	.st12{fill:none;stroke:#4A8CCA;stroke-width:2;stroke-linecap:round;stroke-miterlimit:10;}
</style>
<g>
	<path class="st0" d="M84.7,37.8L84.7,37.8l3.1-3L84.5,33l2.6-2.6l-5-3l-0.2,0.2l-0.3-0.2L51.7,57c0,0-9.3,0.8-18-2.3   C25,51.5,10,42.7,10.5,43.1c-3-1.6-5.7-2.9-6.9-3.4c-3.7-1.6,0,4.2,0,4.2c0.8,0.5,1.9,1.2,3.1,1.9c3.1,2,24.3,17.8,30,22.4   C42.4,72.8,53.1,81,53.1,81l34-33.3l-1.1-1l-1.4,0l3.2-3.1L85.3,42l0,0l2.5-2.4L84.7,37.8z"/>
	<path class="st1" d="M2.4,39.6c0,0-1.6,2.1,1.4,4.2S29.1,64.3,36.8,73c2.9,3.3,8.7,11.9,8.7,11.9l5.4-5.6l0,0   c1.4,1.1,2.3,1.7,2.3,1.7l34-33.2l-1.1-1l-1.4,0l3.2-3.1L85.3,42l0,0l2.5-2.4l-3.1-1.7l3.1-3L84.6,33l2.6-2.6l-5.5-3l5.5-5.5   c0,0-7.4,2.9-16.4,0S36.8,5.3,36.8,5.3L32.2,10l-5.7,5.6c-0.2,0-3-0.7-4.5,1c-1.3,1.6-8.4,8.4-9.8,9.8c-0.1,0.1-0.1,0.1-0.2,0.2   c-0.1,0.1-0.1,0.1-0.1,0.1l0,0c-0.9,1.1-0.5,3.1-0.4,3.6"/>
	<polygon class="st2" points="47.3,28.3 37.3,38.8 40.8,38.8 51,28.3  "/>
	<path class="st2" d="M26.7,15.6l20.6,12.8L26.7,15.6z"/>
	<path class="st2" d="M11.8,30.3c0,0-1.8-5.9,3.9-4.1L2.5,39.6c0,0,1.4-0.4,4.4,1.2S28.8,53.7,38,55.7S51.9,57,51.9,57l35.4-35   c0,0-7.4,2.9-16.4,0S37,5.3,37,5.3L26.7,15.6l20.6,12.8l-10,10.5L15.7,26.2l21.6,12.6"/>
	<path class="st2" d="M26.7,15.6c0,0-3-0.8-4.5,1s-10.1,10-10.1,10"/>
	<path class="st2" d="M51,79.2l-5.4,5.6c0,0-5.8-8.6-8.7-11.9C29.3,64.3,6.9,46,3.9,43.8s-1.4-4.2-1.4-4.2"/>
	<path class="st2" d="M81.8,27.4l5.5,3l-2.8,2.7L53.4,64.1c0,0-14.2-6.4-20.2-9.9"/>
	<path class="st2" d="M84.7,33l3.3,1.8L53.7,68.2c0,0-27.9-17.1-32.4-19.5"/>
	<path class="st2" d="M84.9,37.8l3.1,1.7L53.5,72.7c0,0-35.6-25.6-44.2-30.5"/>
	<path class="st2" d="M85.5,42l2.5,1.6L53.4,77c0,0-39.9-27.2-49.5-33.1"/>
	<path class="st2" d="M86.2,46.7l1.1,1L53.3,81c0,0-10.6-8.1-16.3-12.8c-5.7-4.6-27-20.5-30-22.5"/>
	<path class="st2" d="M32.3,10c0,0,26.8,12.6,32.1,14.8s10.5,2.7,10.5,2.7l-25.2,24c0,0-7.6,0.2-13.2-2.2S7,35.1,7,35.1"/>
	<path class="st3" d="M33.2,12.5c0,0,22.9,11.1,28,13.1s9.4,3.2,9.4,3.2L48.7,49.2c0,0-7.3,0.8-16.7-4S10.5,34.3,10.5,34.3"/>
</g>
</svg>