<?xml version="1.0" encoding="UTF-8"?>
<!-- Generator: Adobe Illustrator 19.1.0, SVG Export Plug-In . SVG Version: 6.00 Build 0)  -->
<svg version="1.1" id="Layer_1" xmlns="http://www.w3.org/2000/svg" xmlns:xlink="http://www.w3.org/1999/xlink" x="0px" y="0px" viewBox="0 0 90 90" style="enable-background:new 0 0 90 90;" xml:space="preserve">
<style type="text/css">
	.st0{opacity:0.26;fill:#488BCA;}
	.st1{opacity:0.5;fill:none;}
	.st2{fill:none;stroke:#4A8CCA;stroke-width:1.3;stroke-linecap:round;stroke-linejoin:round;stroke-miterlimit:10;}
	
		.st3{fill:none;stroke:#4A8CCA;stroke-width:1.3;stroke-linecap:round;stroke-linejoin:round;stroke-miterlimit:10;stroke-dasharray:3;}
	.st4{fill:none;stroke:#4A8CCA;stroke-width:1.7158;stroke-miterlimit:10;}
	.st5{fill:#4A8CCA;}
	.st6{fill:#4A8CCA;stroke:#4A8CCA;stroke-width:1.7158;stroke-miterlimit:10;}
	.st7{fill:none;stroke:#4A8CCA;stroke-width:2;stroke-miterlimit:10;}
	.st8{fill:#FFFFFF;stroke:#4A8CCA;stroke-miterlimit:10;}
	.st9{fill:#FFFFFF;stroke:#4A8CCA;stroke-width:2;stroke-miterlimit:10;}
	.st10{fill:#FFFFFF;stroke:#4A8CCA;stroke-width:2;stroke-linecap:round;stroke-miterlimit:10;}
	.st11{fill:none;stroke:#4A8CCA;stroke-width:2;stroke-linecap:round;stroke-linejoin:round;stroke-miterlimit:10;}
	.st12{fill:none;stroke:#4A8CCA;stroke-width:2;stroke-linecap:round;stroke-miterlimit:10;}
</style>
<g>
	<path class="st7" d="M49.7,32.1v54.3c0,1.6-1.3,2.8-2.8,2.8H16.3c-1.6,0-2.8-1.3-2.8-2.8V22.6c0-1.6,1.3-2.8,2.8-2.8h24.5"/>
	<path class="st7" d="M77,32.1H59L49.9,40l-0.2-7.9h-3.3c-3.1,0-5.7-2.6-5.7-5.7V7.2c0-3.1,2.6-5.7,5.7-5.7H77   c3.1,0,5.7,2.6,5.7,5.7v19.2C82.7,29.5,80.1,32.1,77,32.1z"/>
	<circle class="st8" cx="53.3" cy="16.6" r="1.6"/>
	<circle class="st8" cx="62.3" cy="16.6" r="1.6"/>
	<circle class="st8" cx="71.2" cy="16.6" r="1.6"/>
	<line class="st9" x1="13.4" y1="31.5" x2="35.7" y2="31.5"/>
	<line class="st9" x1="13.4" y1="71.1" x2="49.8" y2="71.1"/>
	<circle class="st7" cx="31.9" cy="80.1" r="3.2"/>
	<line class="st10" x1="35.5" y1="25.5" x2="28.6" y2="25.5"/>
</g>
</svg>