<?xml version="1.0" encoding="UTF-8"?>
<!-- Generator: Adobe Illustrator 19.1.0, SVG Export Plug-In . SVG Version: 6.00 Build 0)  -->
<svg version="1.1" id="Layer_1" xmlns="http://www.w3.org/2000/svg" xmlns:xlink="http://www.w3.org/1999/xlink" x="0px" y="0px" viewBox="0 0 90 90" style="enable-background:new 0 0 90 90;" xml:space="preserve">
<style type="text/css">
	.st0{opacity:0.26;fill:#488BCA;}
	.st1{opacity:0.5;fill:none;}
	.st2{fill:none;stroke:#4A8CCA;stroke-width:1.3;stroke-linecap:round;stroke-linejoin:round;stroke-miterlimit:10;}
	
		.st3{fill:none;stroke:#4A8CCA;stroke-width:1.3;stroke-linecap:round;stroke-linejoin:round;stroke-miterlimit:10;stroke-dasharray:3;}
	.st4{fill:none;stroke:#4A8CCA;stroke-width:1.7158;stroke-miterlimit:10;}
	.st5{fill:#4A8CCA;}
	.st6{fill:#4A8CCA;stroke:#4A8CCA;stroke-width:1.7158;stroke-miterlimit:10;}
	.st7{fill:none;stroke:#4A8CCA;stroke-width:2;stroke-miterlimit:10;}
	.st8{fill:#FFFFFF;stroke:#4A8CCA;stroke-miterlimit:10;}
	.st9{fill:#FFFFFF;stroke:#4A8CCA;stroke-width:2;stroke-miterlimit:10;}
	.st10{fill:#FFFFFF;stroke:#4A8CCA;stroke-width:2;stroke-linecap:round;stroke-miterlimit:10;}
	.st11{fill:none;stroke:#4A8CCA;stroke-width:2;stroke-linecap:round;stroke-linejoin:round;stroke-miterlimit:10;}
	.st12{fill:none;stroke:#4A8CCA;stroke-width:2;stroke-linecap:round;stroke-miterlimit:10;}
</style>
<g>
	<path class="st4" d="M58.2,53.1c-2.4,0-4.3,1.9-4.3,4.3s1.9,4.3,4.3,4.3s4.3-1.9,4.3-4.3S60.6,53.1,58.2,53.1z"/>
	<path class="st4" d="M35.9,35.9c-2.4,0-4.3,1.9-4.3,4.3s1.9,4.3,4.3,4.3s4.3-1.9,4.3-4.3S38.3,35.9,35.9,35.9z"/>
	<polygon class="st4" points="80.6,21.5 77.1,10.3 67,16.5  "/>
	<path class="st4" d="M8.6,63.4l24-20.5L8.6,63.4z"/>
	<path class="st4" d="M39.2,42.9L54.7,55L39.2,42.9z"/>
	<path class="st4" d="M73.8,18.9L59.7,54L73.8,18.9z"/>
	<polygon class="st5" points="87.4,60.3 89,48.6 77.2,49.9  "/>
	<path class="st6" d="M8,62.8c-2.1-1.1-4.7-0.2-5.7,1.9c-1.1,2.1-0.2,4.7,1.9,5.7c2.1,1.1,4.7,0.2,5.7-1.9C11,66.4,10.1,63.9,8,62.8   z"/>
	<path class="st6" d="M41.2,54.6c-2.1-1.1-4.7-0.2-5.7,1.9s-0.2,4.7,1.9,5.7c2.1,1.1,4.7,0.2,5.7-1.9C44.1,58.3,43.3,55.7,41.2,54.6   z"/>
	<path class="st4" d="M9.8,64.9l26.1-6.4L9.8,64.9z"/>
	<path class="st4" d="M42.4,60.2l15.8,13.1L42.4,60.2z"/>
	<path class="st4" d="M82.4,55L63.9,73.8L82.4,55z"/>
	<path class="st6" d="M62.8,72.9c-2.1-1.1-4.7-0.2-5.7,1.9c-1.1,2.1-0.2,4.7,1.9,5.7c2.1,1.1,4.7,0.2,5.7-1.9   C65.7,76.5,64.9,73.9,62.8,72.9z"/>
</g>
</svg>