<?xml version="1.0" encoding="UTF-8"?>
<!-- Generator: Adobe Illustrator 19.1.0, SVG Export Plug-In . SVG Version: 6.00 Build 0)  -->
<svg version="1.1" id="Layer_1" xmlns="http://www.w3.org/2000/svg" xmlns:xlink="http://www.w3.org/1999/xlink" x="0px" y="0px" viewBox="0 0 90 90" style="enable-background:new 0 0 90 90;" xml:space="preserve">
<style type="text/css">
	.st0{opacity:0.26;fill:#488BCA;}
	.st1{opacity:0.5;fill:none;}
	.st2{fill:none;stroke:#4A8CCA;stroke-width:1.3;stroke-linecap:round;stroke-linejoin:round;stroke-miterlimit:10;}
	
		.st3{fill:none;stroke:#4A8CCA;stroke-width:1.3;stroke-linecap:round;stroke-linejoin:round;stroke-miterlimit:10;stroke-dasharray:3;}
	.st4{fill:none;stroke:#4A8CCA;stroke-width:1.7158;stroke-miterlimit:10;}
	.st5{fill:#4A8CCA;}
	.st6{fill:#4A8CCA;stroke:#4A8CCA;stroke-width:1.7158;stroke-miterlimit:10;}
	.st7{fill:none;stroke:#4A8CCA;stroke-width:2;stroke-miterlimit:10;}
	.st8{fill:#FFFFFF;stroke:#4A8CCA;stroke-miterlimit:10;}
	.st9{fill:#FFFFFF;stroke:#4A8CCA;stroke-width:2;stroke-miterlimit:10;}
	.st10{fill:#FFFFFF;stroke:#4A8CCA;stroke-width:2;stroke-linecap:round;stroke-miterlimit:10;}
	.st11{fill:none;stroke:#4A8CCA;stroke-width:2;stroke-linecap:round;stroke-linejoin:round;stroke-miterlimit:10;}
	.st12{fill:none;stroke:#4A8CCA;stroke-width:2;stroke-linecap:round;stroke-miterlimit:10;}
</style>
<g>
	<path class="st7" d="M2.3,47.7C3.8,64.3,11,74,14.2,75.4c3.2,1.3,7.8,1.4,11.2,0.6c3.4-0.8,2.2-7.7,0.4-12.9   c-1.8-5.2-5.6-3.4-10.1-4c-4-0.5-6.5-7.1-6.6-12.5c-0.2-5.5,1.8-12,5.7-12.8c4.5-0.9,8.4,0.6,9.8-4.7s2.2-12.3-1.3-12.8   c-3.5-0.6-9.1,0-11.1,1.4C10,19,0.8,31,2.3,47.7z"/>
	<polygon class="st11" points="38.3,50.5 54.9,45.4 38.3,40.3 38.2,33.4 24,45.4 38.2,57.4  "/>
	<g>
		<path class="st7" d="M70.5,21.9c-6.6,0-12,5.4-12,12c0,4,1.9,10.4,5,14.6c1.9,2.6,4.3,4.4,6.9,4.4c2.6,0,5-1.8,6.9-4.5    c3.1-4.2,5-10.6,5-14.6C82.4,27.3,77.1,21.9,70.5,21.9z"/>
		<path class="st12" d="M70.9,27c-4,0-7.3,3.3-7.3,7.3"/>
		<path class="st7" d="M77.4,48.5c-1.9,2.6-4.3,4.5-6.9,4.5c-2.6,0-5-1.8-6.9-4.4c-6.4,2.8-10.7,9.2-10.7,16.3    c0,5.4,13.4,5.8,17.5,5.8S88,70.2,88,64.8C88,57.7,83.7,51.3,77.4,48.5z"/>
	</g>
</g>
</svg>