<?xml version="1.0" encoding="UTF-8"?>
<!-- Generator: Adobe Illustrator 19.1.0, SVG Export Plug-In . SVG Version: 6.00 Build 0)  -->
<svg version="1.1" id="Layer_1" xmlns="http://www.w3.org/2000/svg" xmlns:xlink="http://www.w3.org/1999/xlink" x="0px" y="0px" viewBox="0 0 90 90" style="enable-background:new 0 0 90 90;" xml:space="preserve">
<style type="text/css">
	.st0{opacity:0.26;fill:#488BCA;}
	.st1{opacity:0.5;fill:none;}
	.st2{fill:none;stroke:#4A8CCA;stroke-width:1.3;stroke-linecap:round;stroke-linejoin:round;stroke-miterlimit:10;}
	
		.st3{fill:none;stroke:#4A8CCA;stroke-width:1.3;stroke-linecap:round;stroke-linejoin:round;stroke-miterlimit:10;stroke-dasharray:3;}
	.st4{fill:none;stroke:#4A8CCA;stroke-width:1.7158;stroke-miterlimit:10;}
	.st5{fill:#4A8CCA;}
	.st6{fill:#4A8CCA;stroke:#4A8CCA;stroke-width:1.7158;stroke-miterlimit:10;}
	.st7{fill:none;stroke:#4A8CCA;stroke-width:2;stroke-miterlimit:10;}
	.st8{fill:#FFFFFF;stroke:#4A8CCA;stroke-miterlimit:10;}
	.st9{fill:#FFFFFF;stroke:#4A8CCA;stroke-width:2;stroke-miterlimit:10;}
	.st10{fill:#FFFFFF;stroke:#4A8CCA;stroke-width:2;stroke-linecap:round;stroke-miterlimit:10;}
	.st11{fill:none;stroke:#4A8CCA;stroke-width:2;stroke-linecap:round;stroke-linejoin:round;stroke-miterlimit:10;}
	.st12{fill:none;stroke:#4A8CCA;stroke-width:2;stroke-linecap:round;stroke-miterlimit:10;}
</style>
<g>
	<circle class="st7" cx="45" cy="46.1" r="37.1"/>
	<line class="st7" x1="59" y1="32.2" x2="47.9" y2="43.2"/>
	<circle class="st7" cx="45" cy="46.1" r="4.1"/>
	<line class="st7" x1="45" y1="14.5" x2="45" y2="20"/>
	<line class="st7" x1="76.6" y1="46.1" x2="71.1" y2="46.1"/>
	<line class="st7" x1="18.9" y1="46.1" x2="13.4" y2="46.1"/>
	<line class="st7" x1="29.2" y1="18.7" x2="31.9" y2="23.5"/>
	<line class="st7" x1="72.4" y1="30.3" x2="67.6" y2="33.1"/>
	<line class="st7" x1="17.6" y1="30.3" x2="22.4" y2="33.1"/>
	<line class="st7" x1="60.8" y1="18.7" x2="58.1" y2="23.5"/>
	<path class="st7" d="M55.3,53c-2.2,3.3-6,5.5-10.3,5.5s-8.1-2.2-10.3-5.5H8.5C11.7,70.2,26.8,83.3,45,83.3s33.3-13,36.5-30.3H55.3z   "/>
</g>
</svg>